<svg width="17" height="16" viewBox="0 0 17 16" fill="none" xmlns="http://www.w3.org/2000/svg">
<path d="M6.50033 6.66667C7.23671 6.66667 7.83366 6.06971 7.83366 5.33333C7.83366 4.59695 7.23671 4 6.50033 4C5.76395 4 5.16699 4.59695 5.16699 5.33333C5.16699 6.06971 5.76395 6.66667 6.50033 6.66667Z" stroke="#666666" stroke-linecap="round" stroke-linejoin="round"/>
<path d="M9.16634 1.33337H6.49968C3.16634 1.33337 1.83301 2.66671 1.83301 6.00004V10C1.83301 13.3334 3.16634 14.6667 6.49968 14.6667H10.4997C13.833 14.6667 15.1663 13.3334 15.1663 10V6.66671" stroke="#666666" stroke-linecap="round" stroke-linejoin="round"/>
<path d="M11 3.33337H14.6667" stroke="#666666" stroke-linecap="round"/>
<path d="M12.833 5.16667V1.5" stroke="#666666" stroke-linecap="round"/>
<path d="M2.28027 12.6333L5.56694 10.4266C6.09361 10.0733 6.85361 10.1133 7.32694 10.52L7.54694 10.7133C8.06694 11.16 8.90694 11.16 9.42694 10.7133L12.2003 8.33329C12.7203 7.88662 13.5603 7.88662 14.0803 8.33329L15.1669 9.26662" stroke="#666666" stroke-linecap="round" stroke-linejoin="round"/>
</svg>
