<svg width="17" height="16" viewBox="0 0 17 16" fill="none" xmlns="http://www.w3.org/2000/svg">
<path d="M15.1663 10V6.00004C15.1663 2.66671 13.833 1.33337 10.4997 1.33337H6.49967C3.16634 1.33337 1.83301 2.66671 1.83301 6.00004V10C1.83301 13.3334 3.16634 14.6667 6.49967 14.6667H10.4997C13.833 14.6667 15.1663 13.3334 15.1663 10Z" stroke="#666666" stroke-linecap="round" stroke-linejoin="round"/>
<path d="M2.17969 4.73999H14.8197" stroke="#666666" stroke-linecap="round" stroke-linejoin="round"/>
<path d="M6.17969 1.40662V4.64662" stroke="#666666" stroke-linecap="round" stroke-linejoin="round"/>
<path d="M10.8203 1.40662V4.34662" stroke="#666666" stroke-linecap="round" stroke-linejoin="round"/>
<path d="M7 9.63333V8.83333C7 7.80666 7.72667 7.38666 8.61333 7.9L9.30667 8.29999L10 8.7C10.8867 9.21333 10.8867 10.0533 10 10.5667L9.30667 10.9667L8.61333 11.3667C7.72667 11.88 7 11.46 7 10.4333V9.63333V9.63333Z" stroke="#666666" stroke-miterlimit="10" stroke-linecap="round" stroke-linejoin="round"/>
</svg>
