<svg width="14" height="15" viewBox="0 0 14 15" fill="none" xmlns="http://www.w3.org/2000/svg">
<path d="M9.79301 0.833374H4.20634C1.77967 0.833374 0.333008 2.28004 0.333008 4.70671V10.2867C0.333008 12.72 1.77967 14.1667 4.20634 14.1667H9.78634C12.213 14.1667 13.6597 12.72 13.6597 10.2934V4.70671C13.6663 2.28004 12.2197 0.833374 9.79301 0.833374ZM9.66634 8.00004H7.49967V10.1667C7.49967 10.44 7.27301 10.6667 6.99967 10.6667C6.72634 10.6667 6.49967 10.44 6.49967 10.1667V8.00004H4.33301C4.05967 8.00004 3.83301 7.77337 3.83301 7.50004C3.83301 7.22671 4.05967 7.00004 4.33301 7.00004H6.49967V4.83337C6.49967 4.56004 6.72634 4.33337 6.99967 4.33337C7.27301 4.33337 7.49967 4.56004 7.49967 4.83337V7.00004H9.66634C9.93967 7.00004 10.1663 7.22671 10.1663 7.50004C10.1663 7.77337 9.93967 8.00004 9.66634 8.00004Z" fill="#4C5BD4"/>
</svg>
