<svg width="32" height="29" viewBox="0 0 32 29" fill="none" xmlns="http://www.w3.org/2000/svg">
<path d="M31 9.53488C31 12.4899 30.235 15.0998 29.035 17.3648C27.715 15.9698 25.855 15.0999 23.8 15.0999C19.825 15.0999 16.6 18.3249 16.6 22.2999C16.6 24.1449 17.305 25.8249 18.445 27.0999C17.89 27.3549 17.38 27.5649 16.93 27.7149C16.42 27.8949 15.58 27.8949 15.07 27.7149C10.72 26.2299 1 20.0349 1 9.53488C1 4.89988 4.735 1.14984 9.34 1.14984C12.055 1.14984 14.485 2.4699 16 4.4949C17.515 2.4699 19.945 1.14984 22.66 1.14984C27.265 1.14984 31 4.89988 31 9.53488Z" stroke="white" stroke-width="1.5" stroke-linecap="round" stroke-linejoin="round"/>
</svg>
