<svg width="40" height="40" viewBox="0 0 40 40" fill="none" xmlns="http://www.w3.org/2000/svg">
<path d="M16.0332 26.667L18.5332 29.167L23.9499 24.167" stroke="white" stroke-width="2.5" stroke-linecap="round" stroke-linejoin="round"/>
<path d="M14.6837 3.33301L8.65039 9.38301" stroke="white" stroke-width="2.5" stroke-miterlimit="10" stroke-linecap="round" stroke-linejoin="round"/>
<path d="M25.3169 3.33301L31.3502 9.38301" stroke="white" stroke-width="2.5" stroke-miterlimit="10" stroke-linecap="round" stroke-linejoin="round"/>
<path d="M3.3335 13.0833C3.3335 10 4.9835 9.75 7.0335 9.75H32.9668C35.0168 9.75 36.6668 10 36.6668 13.0833C36.6668 16.6667 35.0168 16.4167 32.9668 16.4167H7.0335C4.9835 16.4167 3.3335 16.6667 3.3335 13.0833Z" stroke="white" stroke-width="2.5"/>
<path d="M5.8335 16.667L8.1835 31.067C8.71683 34.3003 10.0002 36.667 14.7668 36.667H24.8168C30.0002 36.667 30.7668 34.4003 31.3668 31.267L34.1668 16.667" stroke="white" stroke-width="2.5" stroke-linecap="round"/>
</svg>
