<svg width="20" height="20" viewBox="0 0 20 20" fill="none" xmlns="http://www.w3.org/2000/svg">
<path d="M10.0003 15.8332C11.8413 15.8332 13.3337 14.3408 13.3337 12.4998C13.3337 10.6589 11.8413 9.1665 10.0003 9.1665C8.15938 9.1665 6.66699 10.6589 6.66699 12.4998C6.66699 14.3408 8.15938 15.8332 10.0003 15.8332Z" stroke="#666666" stroke-miterlimit="10" stroke-linecap="round" stroke-linejoin="round"/>
<path d="M10.2087 11.4585V12.2335C10.2087 12.5252 10.0587 12.8002 9.80033 12.9502L9.16699 13.3335" stroke="#666666" stroke-miterlimit="10" stroke-linecap="round" stroke-linejoin="round"/>
<path d="M7.50034 18.3332H12.5003C15.8503 18.3332 16.4503 16.9915 16.6253 15.3582L17.2503 10.3582C17.4753 8.32484 16.892 6.6665 13.3337 6.6665H6.66701C3.10868 6.6665 2.52534 8.32484 2.75034 10.3582L3.37534 15.3582C3.55034 16.9915 4.15034 18.3332 7.50034 18.3332Z" stroke="#666666" stroke-miterlimit="10" stroke-linecap="round" stroke-linejoin="round"/>
<path d="M6.25 6.39143V5.5831C6.25 3.7081 7.75833 1.86643 9.63333 1.69143C11.8667 1.47476 13.75 3.2331 13.75 5.42476V6.57476" stroke="#666666" stroke-miterlimit="10" stroke-linecap="round" stroke-linejoin="round"/>
</svg>
