<svg width="20" height="20" viewBox="0 0 20 20" fill="none" xmlns="http://www.w3.org/2000/svg">
<path d="M8.0166 13.333L9.2666 14.583L11.9749 12.083" stroke="#666666" stroke-linecap="round" stroke-linejoin="round"/>
<path d="M7.34162 1.66699L4.32495 4.69199" stroke="#666666" stroke-miterlimit="10" stroke-linecap="round" stroke-linejoin="round"/>
<path d="M12.6582 1.66699L15.6749 4.69199" stroke="#666666" stroke-miterlimit="10" stroke-linecap="round" stroke-linejoin="round"/>
<path d="M1.66675 6.54167C1.66675 5 2.49175 4.875 3.51675 4.875H16.4834C17.5084 4.875 18.3334 5 18.3334 6.54167C18.3334 8.33333 17.5084 8.20833 16.4834 8.20833H3.51675C2.49175 8.20833 1.66675 8.33333 1.66675 6.54167Z" stroke="#666666"/>
<path d="M2.91675 8.33301L4.09175 15.533C4.35841 17.1497 5.00008 18.333 7.38341 18.333H12.4084C15.0001 18.333 15.3834 17.1997 15.6834 15.633L17.0834 8.33301" stroke="#666666" stroke-linecap="round"/>
</svg>
