<svg width="31" height="31" viewBox="0 0 31 31" fill="none" xmlns="http://www.w3.org/2000/svg">
<path d="M24.8518 7.20747H24.3352L19.9693 2.84164C19.6206 2.49289 19.0522 2.49289 18.6906 2.84164C18.3418 3.19039 18.3418 3.75872 18.6906 4.12039L21.7777 7.20747H9.22266L12.3097 4.12039C12.6585 3.77164 12.6585 3.20331 12.3097 2.84164C11.961 2.49289 11.3927 2.49289 11.031 2.84164L6.67808 7.20747H6.16141C4.99891 7.20747 2.5835 7.20747 2.5835 10.5141C2.5835 11.7671 2.84183 12.5937 3.38433 13.1362C3.69433 13.4591 4.06891 13.6271 4.46933 13.7175C4.84391 13.8079 5.24433 13.8208 5.63183 13.8208H25.3685C25.7689 13.8208 26.1435 13.795 26.5052 13.7175C27.5902 13.4591 28.4168 12.6841 28.4168 10.5141C28.4168 7.20747 26.0014 7.20747 24.8518 7.20747Z" fill="white"/>
<path d="M24.6061 15.5H6.29027C5.48944 15.5 4.88235 16.2104 5.01152 16.9983L6.09652 23.6375C6.45819 25.8592 7.42694 28.4167 11.7282 28.4167H18.9744C23.3274 28.4167 24.1024 26.2338 24.5674 23.7925L25.8719 17.0371C26.0269 16.2362 25.4199 15.5 24.6061 15.5ZM13.7044 23.8313C13.7044 24.335 13.304 24.7354 12.8132 24.7354C12.3094 24.7354 11.909 24.335 11.909 23.8313V19.5687C11.909 19.0779 12.3094 18.6646 12.8132 18.6646C13.304 18.6646 13.7044 19.0779 13.7044 19.5687V23.8313ZM19.2328 23.8313C19.2328 24.335 18.8324 24.7354 18.3286 24.7354C17.8378 24.7354 17.4244 24.335 17.4244 23.8313V19.5687C17.4244 19.0779 17.8378 18.6646 18.3286 18.6646C18.8324 18.6646 19.2328 19.0779 19.2328 19.5687V23.8313Z" fill="white"/>
</svg>
