<svg width="40" height="40" viewBox="0 0 40 40" fill="none" xmlns="http://www.w3.org/2000/svg">
<path d="M11.2668 36.6668H28.7334C33.3334 36.6668 35.1668 33.8502 35.3834 30.4168L36.2501 16.6502C36.4834 13.0502 33.6168 10.0002 30.0001 10.0002C28.9834 10.0002 28.0501 9.41683 27.5834 8.51683L26.3834 6.10016C25.6168 4.5835 23.6168 3.3335 21.9168 3.3335H18.1001C16.3834 3.3335 14.3834 4.5835 13.6168 6.10016L12.4168 8.51683C11.9501 9.41683 11.0168 10.0002 10.0001 10.0002C6.38345 10.0002 3.51678 13.0502 3.75012 16.6502L4.61678 30.4168C4.81678 33.8502 6.66678 36.6668 11.2668 36.6668Z" stroke="#666666" stroke-width="2" stroke-linecap="round" stroke-linejoin="round"/>
<path d="M17.5 13.3335H22.5" stroke="#666666" stroke-width="2" stroke-linecap="round" stroke-linejoin="round"/>
<path d="M20.0002 29.9998C22.9835 29.9998 25.4168 27.5665 25.4168 24.5832C25.4168 21.5998 22.9835 19.1665 20.0002 19.1665C17.0168 19.1665 14.5835 21.5998 14.5835 24.5832C14.5835 27.5665 17.0168 29.9998 20.0002 29.9998Z" stroke="#666666" stroke-width="2" stroke-linecap="round" stroke-linejoin="round"/>
</svg>
