<svg width="20" height="20" viewBox="0 0 20 20" fill="none" xmlns="http://www.w3.org/2000/svg">
<path d="M14.167 1.66675H5.83366C3.53366 1.66675 1.66699 3.52508 1.66699 5.81675V10.8001V11.6334C1.66699 13.9251 3.53366 15.7834 5.83366 15.7834H7.08366C7.30866 15.7834 7.60866 15.9334 7.75033 16.1167L9.00033 17.7751C9.55033 18.5084 10.4503 18.5084 11.0003 17.7751L12.2503 16.1167C12.4087 15.9084 12.6587 15.7834 12.917 15.7834H14.167C16.467 15.7834 18.3337 13.9251 18.3337 11.6334V5.81675C18.3337 3.52508 16.467 1.66675 14.167 1.66675ZM10.8337 11.4584H5.83366C5.49199 11.4584 5.20866 11.1751 5.20866 10.8334C5.20866 10.4917 5.49199 10.2084 5.83366 10.2084H10.8337C11.1753 10.2084 11.4587 10.4917 11.4587 10.8334C11.4587 11.1751 11.1753 11.4584 10.8337 11.4584ZM14.167 7.29175H5.83366C5.49199 7.29175 5.20866 7.00842 5.20866 6.66675C5.20866 6.32508 5.49199 6.04175 5.83366 6.04175H14.167C14.5087 6.04175 14.792 6.32508 14.792 6.66675C14.792 7.00842 14.5087 7.29175 14.167 7.29175Z" fill="#C4C4C4"/>
</svg>
