<svg width="16" height="16" viewBox="0 0 16 16" fill="none" xmlns="http://www.w3.org/2000/svg">
<path d="M5.78125 9.55325C5.78125 10.4132 6.44125 11.1066 7.26125 11.1066H8.93458C9.64792 11.1066 10.2279 10.4999 10.2279 9.75325C10.2279 8.93992 9.87458 8.65325 9.34792 8.46658L6.66125 7.53325C6.13458 7.34658 5.78125 7.05992 5.78125 6.24658C5.78125 5.49992 6.36125 4.89325 7.07458 4.89325H8.74792C9.56792 4.89325 10.2279 5.58658 10.2279 6.44658" stroke="#292D32" stroke-linecap="round" stroke-linejoin="round"/>
<path d="M8 4V12" stroke="#292D32" stroke-linecap="round" stroke-linejoin="round"/>
<path d="M7.99967 14.6666C11.6816 14.6666 14.6663 11.6819 14.6663 7.99998C14.6663 4.31808 11.6816 1.33331 7.99967 1.33331C4.31778 1.33331 1.33301 4.31808 1.33301 7.99998C1.33301 11.6819 4.31778 14.6666 7.99967 14.6666Z" stroke="#292D32" stroke-linecap="round" stroke-linejoin="round"/>
</svg>
