<svg width="36" height="37" viewBox="0 0 36 37" fill="none" xmlns="http://www.w3.org/2000/svg">
<path d="M25.7996 33.4999C29.776 33.4999 32.9996 30.2764 32.9996 26.3C32.9996 22.3235 29.776 19.1 25.7996 19.1C21.8231 19.1 18.5996 22.3235 18.5996 26.3C18.5996 30.2764 21.8231 33.4999 25.7996 33.4999Z" stroke="#C4C4C4" stroke-width="1.5" stroke-miterlimit="10" stroke-linecap="round" stroke-linejoin="round"/>
<path d="M28.4843 26.39H23.1143" stroke="#C4C4C4" stroke-width="1.5" stroke-miterlimit="10" stroke-linecap="round" stroke-linejoin="round"/>
<path d="M25.7988 23.765V29.15" stroke="#C4C4C4" stroke-width="1.5" stroke-miterlimit="10" stroke-linecap="round" stroke-linejoin="round"/>
<path d="M33 13.5349C33 16.4899 32.235 19.0999 31.035 21.3649C29.715 19.9699 27.855 19.1 25.8 19.1C21.825 19.1 18.6 22.325 18.6 26.3C18.6 28.145 19.305 29.825 20.445 31.1C19.89 31.355 19.38 31.5649 18.93 31.7149C18.42 31.8949 17.58 31.8949 17.07 31.7149C12.72 30.2299 3 24.0349 3 13.5349C3 8.89994 6.735 5.1499 11.34 5.1499C14.055 5.1499 16.485 6.46996 18 8.49496C19.515 6.46996 21.945 5.1499 24.66 5.1499C29.265 5.1499 33 8.89994 33 13.5349Z" stroke="#C4C4C4" stroke-width="1.5" stroke-linecap="round" stroke-linejoin="round"/>
</svg>
