<svg width="20" height="20" viewBox="0 0 20 20" fill="none" xmlns="http://www.w3.org/2000/svg">
<path d="M14.3335 18.3335C16.5426 18.3335 18.3335 16.5426 18.3335 14.3335C18.3335 12.1243 16.5426 10.3335 14.3335 10.3335C12.1243 10.3335 10.3335 12.1243 10.3335 14.3335C10.3335 16.5426 12.1243 18.3335 14.3335 18.3335Z" stroke="#666666" stroke-miterlimit="10" stroke-linecap="round" stroke-linejoin="round"/>
<path d="M15.8251 14.3838H12.8418" stroke="#666666" stroke-miterlimit="10" stroke-linecap="round" stroke-linejoin="round"/>
<path d="M14.3335 12.9253V15.9169" stroke="#666666" stroke-miterlimit="10" stroke-linecap="round" stroke-linejoin="round"/>
<path d="M18.3332 7.24185C18.3332 8.88352 17.9082 10.3335 17.2415 11.5918C16.5082 10.8168 15.4748 10.3335 14.3332 10.3335C12.1248 10.3335 10.3332 12.1252 10.3332 14.3335C10.3332 15.3585 10.7248 16.2919 11.3582 17.0002C11.0498 17.1419 10.7665 17.2585 10.5165 17.3418C10.2332 17.4418 9.76651 17.4418 9.48318 17.3418C7.06651 16.5168 1.6665 13.0752 1.6665 7.24185C1.6665 4.66685 3.7415 2.5835 6.29984 2.5835C7.80817 2.5835 9.15817 3.31686 9.99984 4.44186C10.8415 3.31686 12.1915 2.5835 13.6998 2.5835C16.2582 2.5835 18.3332 4.66685 18.3332 7.24185Z" stroke="#666666" stroke-linecap="round" stroke-linejoin="round"/>
</svg>
