<svg width="25" height="25" viewBox="0 0 25 25" fill="none" xmlns="http://www.w3.org/2000/svg">
<path d="M17.9165 22.9166C20.6779 22.9166 22.9165 20.678 22.9165 17.9166C22.9165 15.1552 20.6779 12.9166 17.9165 12.9166C15.1551 12.9166 12.9165 15.1552 12.9165 17.9166C12.9165 20.678 15.1551 22.9166 17.9165 22.9166Z" stroke="white" stroke-width="1.5" stroke-miterlimit="10" stroke-linecap="round" stroke-linejoin="round"/>
<path d="M19.7814 17.9791H16.0522" stroke="white" stroke-width="1.5" stroke-miterlimit="10" stroke-linecap="round" stroke-linejoin="round"/>
<path d="M17.9165 16.1561V19.8957" stroke="white" stroke-width="1.5" stroke-miterlimit="10" stroke-linecap="round" stroke-linejoin="round"/>
<path d="M22.9168 9.05207C22.9168 11.1042 22.3856 12.9166 21.5523 14.4895C20.6356 13.5208 19.3439 12.9167 17.9168 12.9167C15.1564 12.9167 12.9169 15.1562 12.9169 17.9167C12.9169 19.1979 13.4064 20.3646 14.1981 21.25C13.8127 21.4271 13.4585 21.5729 13.146 21.6771C12.7918 21.8021 12.2085 21.8021 11.8543 21.6771C8.8335 20.6458 2.0835 16.3437 2.0835 9.05207C2.0835 5.83332 4.67724 3.22913 7.87516 3.22913C9.76058 3.22913 11.4481 4.14584 12.5002 5.55209C13.5522 4.14584 15.2397 3.22913 17.1252 3.22913C20.3231 3.22913 22.9168 5.83332 22.9168 9.05207Z" stroke="white" stroke-width="1.5" stroke-linecap="round" stroke-linejoin="round"/>
</svg>
