<svg width="31" height="30" viewBox="0 0 31 30" fill="none" xmlns="http://www.w3.org/2000/svg">
<path d="M15.5 2C12.0522 2 8.74558 3.36964 6.30761 5.80761C3.86964 8.24558 2.5 11.5522 2.5 15C2.5 18.4478 3.86964 21.7544 6.30761 24.1924C8.74558 26.6304 12.0522 28 15.5 28C18.9478 28 22.2544 26.6304 24.6924 24.1924C27.1304 21.7544 28.5 18.4478 28.5 15C28.5 11.5522 27.1304 8.24558 24.6924 5.80761C22.2544 3.36964 18.9478 2 15.5 2Z" fill="#039BE5"/>
<path d="M17.7952 18.752H21.8275L22.4606 15.444H17.7943V13.6359C17.7943 12.2617 18.3504 11.0431 19.9422 11.0431H22.5V8.1563C22.0506 8.10729 21.1001 8 19.3041 8C15.5539 8 13.3552 9.59939 13.3552 13.2432V15.444H9.5V18.752H13.3552V27.8444C14.1187 27.9371 14.8921 28 15.6859 28C16.4035 28 17.1038 27.947 17.7952 27.8715V18.752Z" fill="white"/>
</svg>
