<svg width="36" height="38" viewBox="0 0 36 38" fill="none" xmlns="http://www.w3.org/2000/svg">
<path fill-rule="evenodd" clip-rule="evenodd" d="M13.0294 35.7262L23.4746 35.707C23.0322 34.9216 22.2691 34.7223 22.2711 32.4335C22.2743 28.8236 22.0395 29.3351 23.6128 29.3214C23.8213 28.2391 24.8754 27.2946 26.0743 27.1797C27.0102 27.0901 27.1447 26.9404 27.5702 26.361C27.8605 25.9654 28.2569 25.4957 28.465 25.0033L6.4635 25.0049C6.4635 27.9588 6.88739 29.7875 8.28585 31.8271C10.3099 34.779 12.6617 35.3386 13.0294 35.726V35.7262Z" fill="#3D5490"/>
<path fill-rule="evenodd" clip-rule="evenodd" d="M23.474 35.7065L33.585 35.7061C34.0043 35.0406 34.8636 34.6171 34.8514 32.5082C34.8317 29.0988 35.1451 29.2349 33.5105 29.3266L25.2737 29.3225L23.6121 29.3209C22.0388 29.3345 22.2736 28.8229 22.2705 32.433C22.2684 34.7221 23.0315 34.9214 23.474 35.7065Z" fill="#E3F2FF"/>
<path fill-rule="evenodd" clip-rule="evenodd" d="M33.5325 37.9998C34.9795 37.9828 35.8582 37.9587 35.8915 37.9255C36.0761 37.542 35.9873 36.1834 35.8915 35.773C35.2738 35.6295 34.3235 35.6773 33.5837 35.7064L23.4727 35.7069L13.0275 35.7261L8.79318 35.6945L3.76973 35.699C3.39792 36.0462 3.50888 36.2071 3.51001 36.8121C3.51114 37.3833 3.40562 37.7189 3.73803 37.9998H33.5325Z" fill="#D68955"/>
<path fill-rule="evenodd" clip-rule="evenodd" d="M4.40526 22.7599C3.98568 23.2312 3.89941 23.0326 3.91368 23.9742C3.92454 24.6986 4.04003 24.7735 4.57351 25.0094L6.46288 25.0052L28.4644 25.0036C28.6682 24.6823 28.7946 24.3979 29.3405 24.4157C29.7707 24.43 29.9981 24.765 30.236 24.9982L32.7662 25.0074C34.3017 25.0422 34.6296 25.1149 34.6296 23.8986C34.6296 22.6384 34.2394 22.7111 32.7338 22.7111C32.6729 22.7443 6.6241 22.8771 4.40504 22.7601L4.40526 22.7599Z" fill="#ABC6E1"/>
<path fill-rule="evenodd" clip-rule="evenodd" d="M2.35913 22.6381C2.40578 22.837 2.44789 22.7593 2.75698 22.7663C2.91865 22.7699 3.11746 22.758 3.28593 22.7575C3.65887 22.7564 4.03294 22.7532 4.40542 22.7609C6.62448 22.8778 32.6733 22.7451 32.7342 22.7119C32.7877 22.3959 32.8028 21.6279 32.7691 21.2994C32.7172 20.7958 32.3703 20.7409 31.7988 20.8033L22.979 20.7976L11.8266 20.8134L8.95948 20.8012L6.74268 20.8053C6.32468 21.1608 6.46304 21.7983 6.46304 22.6498C6.12746 22.7205 3.0887 22.6383 2.35913 22.6383V22.6381Z" fill="#3D5490"/>
<path fill-rule="evenodd" clip-rule="evenodd" d="M8.79387 35.696L13.0282 35.7276C12.6602 35.34 10.3087 34.7806 8.28462 31.8288C6.88593 29.7892 6.46227 27.9605 6.46227 25.0066L4.5729 25.0109L2.31738 25.0156C2.31738 27.8264 2.55922 29.489 4.08923 31.7819C4.39266 32.2365 4.67095 32.5918 5.01943 33.007C6.40385 34.6554 8.55974 35.5033 8.79432 35.6963L8.79387 35.696Z" fill="#2E3E70"/>
<path fill-rule="evenodd" clip-rule="evenodd" d="M11.1754 5.5654C11.1754 6.62527 11.9337 7.50816 12.7263 7.80456C13.5389 8.10864 15.297 7.94046 16.3868 7.94046C17.8568 7.94046 20.7663 7.87906 22.1215 7.9382C23.431 7.99531 23.4108 9.4315 22.6154 9.77124C21.7198 10.1537 17.3723 9.49832 16.2944 10.1494C15.073 10.8871 15.27 11.9729 15.27 13.2102C15.27 13.5279 15.4994 13.8039 15.7911 13.8039C16.4201 13.8039 16.3934 13.3658 16.387 12.7653C16.3651 10.653 16.9798 10.9835 19.6622 10.9835C20.5102 10.9835 22.2807 11.1009 22.9253 10.8968C24.9349 10.2611 24.7513 7.19189 22.6233 6.84402C21.5803 6.67335 14.0126 6.97675 13.2543 6.75869C12.0581 6.41443 12.1219 4.82677 13.1148 4.45609C13.5088 4.30891 16.13 4.37731 16.7588 4.37821C17.4483 4.37911 18.0989 4.48341 18.0989 3.7845C18.0989 3.34204 17.7984 3.1908 17.3544 3.1908H13.781C12.2408 3.1908 11.1754 4.33713 11.1754 5.56585V5.5654Z" fill="#FD9902"/>
<path fill-rule="evenodd" clip-rule="evenodd" d="M20.0037 17.956C19.1471 18.3075 17.8005 18.3901 16.7596 18.3132C16.2388 18.2746 15.6652 18.1664 15.2031 18.0271C14.5885 17.8423 14.4253 17.6292 14.0181 17.4296C13.4376 17.6332 12.6652 18.2296 12.3513 18.6105C11.8158 19.2602 11.6234 19.7496 11.8267 20.8108L22.9791 20.795C22.9791 18.366 23.2127 18.7288 25.5477 18.7111C25.428 18.4691 25.2577 18.368 25.0756 18.196C24.8843 18.0795 24.6902 17.9007 24.4772 17.7632C24.2344 17.6066 24.0707 17.5262 23.8033 17.3939C23.5282 17.2576 22.4927 16.8772 22.3706 16.7722C22.1759 16.7582 21.3659 16.5411 21.2158 16.4754C21.4153 17.3583 20.7097 17.7418 20.0039 17.9563L20.0037 17.956Z" fill="#FDFEFE"/>
<path fill-rule="evenodd" clip-rule="evenodd" d="M3.21082 8.6823C3.21082 12.8841 9.08046 9.86475 10.051 11.4373C10.447 12.0791 9.82316 13.8033 10.7298 13.8033C11.5289 13.8033 11.3998 12.8649 11.3998 12.2448C11.3998 11.4242 11.098 10.7677 10.6567 10.3878C10.0677 9.88077 9.65017 9.86949 8.57075 9.86971C7.95213 9.86994 5.27635 9.98349 4.8305 9.73923C4.22615 9.40806 4.0493 8.42021 4.94893 8.04028C5.93777 7.62243 9.09201 8.42969 9.09201 7.49488C9.09201 7.20728 8.99373 6.8269 8.64525 6.8269H5.07188C4.17475 6.8269 3.21082 7.78722 3.21082 8.6823Z" fill="#FBB442"/>
<path fill-rule="evenodd" clip-rule="evenodd" d="M22.9786 20.7979L31.7985 20.8035C31.7985 20.0933 31.8974 19.3509 31.5238 18.9784C31.1858 18.6413 30.309 18.6334 29.6397 18.733L25.5475 18.7138C23.2125 18.7314 22.9789 18.3686 22.9789 20.7977L22.9786 20.7979Z" fill="#FD9902"/>
<path fill-rule="evenodd" clip-rule="evenodd" d="M25.272 29.3223L33.5088 29.3264C33.3731 29.021 33.2993 28.7878 33.1345 28.5013C32.9558 28.1907 32.803 28.0949 32.6155 27.8421C32.3356 27.7292 32.1882 27.5581 31.8427 27.4125C31.5965 27.3089 31.2075 27.2132 31.0508 27.0906C30.6765 26.7978 30.7379 25.9217 30.4777 25.4662C29.5874 25.5601 29.6768 25.9734 29.2758 26.5816C28.9769 27.0346 28.6445 27.4979 28.3191 27.853C27.6738 28.5575 26.187 27.9263 25.272 29.3223Z" fill="#F82A39"/>
<path fill-rule="evenodd" clip-rule="evenodd" d="M27.1084 7.64319C27.1084 8.90352 29.4065 7.93372 30.2072 8.48747C30.9028 8.96853 30.9442 10.2113 29.7724 10.3731C29.2362 10.4472 28.6208 10.3072 28.1201 10.4329C26.5722 10.8217 26.5874 12.1312 26.5874 13.2096C26.5874 13.5272 26.8168 13.8033 27.1084 13.8033C28.3205 13.8033 27.2155 12.0445 28.2492 11.6007C28.5467 11.4729 28.9407 11.5007 29.3418 11.5025C30.2498 11.5068 30.6515 11.4402 31.1476 11.002C32.1077 10.1544 32.1355 8.75588 31.1487 7.77141C30.293 6.91787 29.138 7.12352 27.704 7.12352C27.3854 7.12352 27.1084 7.3522 27.1084 7.64296V7.64319Z" fill="#FBB442"/>
<path fill-rule="evenodd" clip-rule="evenodd" d="M22.1954 0.519438C22.1954 2.04186 25.7688 -0.0480837 25.7688 2.37483C25.7688 3.49317 24.013 3.19112 23.0142 3.19112C22.4187 3.19112 21.8223 3.19451 21.227 3.19067C20.6059 3.18661 20.0364 3.17667 20.0364 3.78506C20.0364 4.14399 20.2719 4.37876 20.6319 4.37876H24.8008C26.5115 4.37876 27.7727 2.40689 26.3349 0.697099C25.9481 0.237257 25.3875 0.0604995 24.7537 0H22.642C22.4316 0 22.1952 0.309496 22.1952 0.519438H22.1954Z" fill="#FBB442"/>
<path fill-rule="evenodd" clip-rule="evenodd" d="M20.0019 17.9581C20.7077 17.7437 21.4133 17.3604 21.2138 16.4772C20.9418 16.1181 20.8732 16.0765 20.4324 15.8578C20.0207 15.6535 19.8244 15.5989 19.3197 15.4826C18.8475 15.374 17.2009 15.1332 16.6842 15.3357C16.8805 15.4928 16.7612 15.3203 16.2193 15.7163C16.0563 15.8355 15.8661 16.0264 15.8144 16.2827C15.6987 16.8565 16.2956 17.1938 16.6695 17.385C17.9479 18.0387 19.665 17.8313 20.0019 17.9579V17.9581Z" fill="#FEDE72"/>
<path fill-rule="evenodd" clip-rule="evenodd" d="M12.6365 16.7724C12.4712 16.9076 11.6823 17.1609 11.4036 17.295C10.9901 17.4939 10.689 17.6919 10.3024 17.9011C9.7857 18.3398 9.34144 18.6628 9.02918 19.3807C8.76901 19.9437 8.87634 20.222 8.95741 20.7988L11.8245 20.811C11.6212 19.7498 11.8137 19.2604 12.3492 18.6107C12.6632 18.2298 13.4354 17.6334 14.016 17.4298C13.7823 17.0178 13.6899 17.0765 13.8045 16.4753C13.6351 16.5437 12.8414 16.7575 12.6365 16.7722V16.7724Z" fill="#E3F2FF"/>
<path fill-rule="evenodd" clip-rule="evenodd" d="M28.4629 25.0037C28.2548 25.496 27.8585 25.9658 27.568 26.3613C27.1425 26.9408 27.0082 27.0905 26.0722 27.1801C24.8732 27.295 23.8191 28.2395 23.6106 29.3217L25.2722 29.3233C26.1872 27.9273 27.6737 28.5585 28.3193 27.8539C28.6447 27.4988 28.9771 27.0358 29.276 26.5825C29.677 25.9744 29.5878 25.561 30.4779 25.4671C30.3835 25.2678 30.316 25.1705 30.2345 24.9985C29.9965 24.7655 29.7692 24.4303 29.3389 24.4161C28.7928 24.398 28.6667 24.6827 28.4629 25.0039V25.0037Z" fill="#E41E2D"/>
<path fill-rule="evenodd" clip-rule="evenodd" d="M3.73899 37.999C3.40658 37.7182 3.5121 37.3825 3.51097 36.8114C3.50984 36.2062 3.39888 36.0452 3.77069 35.6983C2.72003 35.6983 1.03785 35.5682 0.158377 35.7725C-0.03047 36.1651 0.00915607 36.3299 0.00892963 36.8859C0.0087032 37.5938 -0.0680582 37.5514 0.232647 37.9993H3.73876L3.73899 37.999Z" fill="#C47A44"/>
<path fill-rule="evenodd" clip-rule="evenodd" d="M2.31751 25.0143L4.57302 25.0096C4.03954 24.7737 3.92406 24.699 3.91319 23.9743C3.89893 23.0325 3.9852 23.2312 4.40478 22.76C4.0323 22.7524 3.65823 22.7555 3.28529 22.7567C3.11682 22.7571 2.91824 22.7691 2.75634 22.7655C2.44725 22.7585 2.40514 22.8361 2.35849 22.6372C1.34837 22.9576 0.379678 22.2532 0.376961 23.8231C0.37447 25.2421 1.00034 24.9967 2.31751 25.0143Z" fill="#8FB0C4"/>
<path fill-rule="evenodd" clip-rule="evenodd" d="M2.35859 22.6363C3.08817 22.6363 6.12692 22.7185 6.4625 22.6478C6.4625 21.7963 6.32437 21.1588 6.74214 20.8033L6.20414 20.7879L3.73192 20.787C2.9797 20.7613 2.78361 20.6918 2.31738 21.0031L2.35837 22.6363H2.35859Z" fill="#2E3E70"/>
<path fill-rule="evenodd" clip-rule="evenodd" d="M13.8068 16.4755C13.6922 17.0766 13.7846 17.0179 14.0182 17.4299C14.4254 17.6295 14.5886 17.8426 15.2032 18.0275C15.6656 18.1665 16.2389 18.2749 16.7597 18.3135C17.8006 18.3905 19.1474 18.3078 20.0038 17.9564C19.6669 17.8297 17.9498 18.0372 16.6714 17.3834C16.2975 17.1922 15.7007 16.8549 15.8164 16.2811C15.868 16.0247 16.0582 15.8339 16.2212 15.7147C16.7629 15.3188 16.8822 15.4912 16.6861 15.3341C15.9957 15.4357 15.5455 15.4639 14.9824 15.6678C14.5357 15.8296 14.0511 16.0931 13.8063 16.4755H13.8068Z" fill="#FAC600"/>
<path fill-rule="evenodd" clip-rule="evenodd" d="M22.3682 16.7741C22.4902 16.8791 23.5257 17.2597 23.8008 17.3958C24.0682 17.5283 24.2319 17.6087 24.4747 17.7651C24.6878 17.9026 24.8818 18.0814 25.0731 18.1979C25.3272 18.1128 25.2525 18.1432 25.452 17.943C25.5817 17.8127 25.6528 17.736 25.7826 17.6069C26.0085 17.3813 26.2545 17.2179 26.3819 16.9226C26.1055 16.5962 25.793 16.3185 25.4871 16.0136C23.9269 14.4577 23.9516 15.4027 22.3682 16.7743V16.7741Z" fill="#017B4E"/>
<path fill-rule="evenodd" clip-rule="evenodd" d="M26.3818 16.9224C26.2543 17.2177 26.0086 17.3813 25.7824 17.6066C25.6529 17.736 25.5816 17.8125 25.4518 17.9428C25.2523 18.1432 25.3271 18.1125 25.073 18.1976C25.2551 18.3699 25.4253 18.4708 25.5451 18.7128L29.6372 18.732C29.433 18.352 28.5633 17.5969 28.2041 17.2375C27.9243 16.9576 27.7943 16.7666 27.3953 16.6273C26.9311 16.4653 26.6657 16.6924 26.3816 16.9222L26.3818 16.9224Z" fill="#80D261"/>
<path fill-rule="evenodd" clip-rule="evenodd" d="M7.17293 18.6964C6.79162 18.9262 6.68225 18.993 6.41234 19.1926C6.15896 19.8389 6.01721 19.9443 6.20334 20.7886L6.74135 20.804L8.95814 20.7999C8.87685 20.2229 8.76975 19.9448 9.02992 19.3818C8.43146 18.8375 8.32979 18.5262 7.17316 18.6964H7.17293Z" fill="#C47A44"/>
<path fill-rule="evenodd" clip-rule="evenodd" d="M4.69888 18.7036C5.09106 18.6397 5.31659 18.5955 5.71104 18.7316C6.12292 18.8736 6.10119 19.0077 6.41231 19.1942C6.68222 18.9946 6.79181 18.9278 7.1729 18.698C7.20438 18.4241 7.16837 18.2553 7.23404 17.9747C7.29676 17.707 7.40047 17.62 7.45481 17.3593C7.25827 17.0162 7.05629 17.0013 6.88057 16.7751C6.56153 16.7105 6.31856 16.5841 5.93295 16.6642C5.58242 16.7372 5.3886 16.8288 5.16488 17.0171C4.81957 17.3076 4.38255 18.0517 4.69888 18.7038V18.7036Z" fill="#6D3326"/>
<path fill-rule="evenodd" clip-rule="evenodd" d="M30.4783 25.4654C30.7385 25.9207 30.6771 26.7969 31.0514 27.0899C31.2081 27.2125 31.5971 27.3082 31.8432 27.4118C32.1888 27.5574 32.3362 27.7285 32.616 27.8414C32.616 27.4229 32.7125 26.8589 32.7542 26.4838C32.8006 26.065 32.765 25.4462 32.765 25.0058L30.2349 24.9966C30.3164 25.1688 30.3839 25.2661 30.4783 25.4652V25.4654Z" fill="#3D5490"/>
<path fill-rule="evenodd" clip-rule="evenodd" d="M4.6988 18.7007C3.92688 18.8847 3.32864 19.908 3.73102 20.7864L6.20323 20.7873C6.01733 19.943 6.15885 19.8376 6.41223 19.1913C6.10111 19.0048 6.12285 18.871 5.71096 18.7287C5.31629 18.5926 5.09098 18.6369 4.6988 18.7007Z" fill="#883F2E"/>
<path fill-rule="evenodd" clip-rule="evenodd" d="M7.45427 17.3571C7.39993 17.6181 7.296 17.7047 7.2335 17.9725C7.16783 18.2531 7.20406 18.4222 7.17236 18.6958C8.32899 18.5255 8.43066 18.8371 9.02913 19.3811C9.34138 18.663 9.78587 18.3402 10.3024 17.9016C10.2091 17.8027 10.2969 17.9122 10.1944 17.7573C9.96362 17.4088 10.0055 17.2682 9.6002 17.0778L9.60767 16.7397L9.44984 16.9842C9.14823 16.7893 8.7445 16.7367 8.34213 16.8408C7.78713 16.9844 7.77355 17.2641 7.45405 17.3571H7.45427Z" fill="#883F2E"/>
<path fill-rule="evenodd" clip-rule="evenodd" d="M6.88161 16.7732C7.0571 16.9992 7.2593 17.0143 7.45585 17.3574C7.77535 17.2647 7.78893 16.9847 8.34392 16.8412C8.7463 16.7371 9.14981 16.7897 9.45164 16.9845L9.60947 16.74C9.626 16.4001 9.80896 16.2199 9.91198 15.9569C9.71974 15.6732 9.71159 15.5874 9.45595 15.3718C8.36294 14.451 6.70091 15.2623 6.88206 16.7732H6.88161Z" fill="#C47A44"/>
<path fill-rule="evenodd" clip-rule="evenodd" d="M9.91131 15.9576C9.80828 16.2208 9.62555 16.4007 9.60879 16.7407L9.60132 17.0789C10.0066 17.2692 9.96497 17.41 10.1955 17.7584C10.2981 17.9132 10.2102 17.8037 10.3035 17.9026C10.6898 17.6934 10.9912 17.4954 11.4046 17.2965C11.6834 17.1624 12.4723 16.9091 12.6376 16.7739C12.6029 16.1551 12.1498 15.7296 11.5998 15.5348C11.2824 15.4224 10.9914 15.421 10.6683 15.5249C10.3037 15.6418 10.1912 15.7696 9.91131 15.9576Z" fill="#6D3326"/>
</svg>
