<svg width="18" height="18" viewBox="0 0 18 18" fill="none" xmlns="http://www.w3.org/2000/svg">
<path d="M6.29199 13.8674V6.24742C6.29199 5.94742 6.38199 5.65492 6.54699 5.40742L8.59449 2.36242C8.91699 1.87492 9.71949 1.52992 10.402 1.78492C11.137 2.03242 11.6245 2.85742 11.467 3.59242L11.077 6.04492C11.047 6.26992 11.107 6.47242 11.2345 6.62992C11.362 6.77242 11.5495 6.86242 11.752 6.86242H14.8345C15.427 6.86242 15.937 7.10242 16.237 7.52242C16.522 7.92742 16.5745 8.45242 16.387 8.98492L14.542 14.6024C14.3095 15.5324 13.297 16.2899 12.292 16.2899H9.36699C8.86449 16.2899 8.15949 16.1174 7.83699 15.7949L6.87699 15.0524C6.50949 14.7749 6.29199 14.3324 6.29199 13.8674Z" fill="#979797"/>
<path d="M3.9075 4.78503H3.135C1.9725 4.78503 1.5 5.23503 1.5 6.34503V13.89C1.5 15 1.9725 15.45 3.135 15.45H3.9075C5.07 15.45 5.5425 15 5.5425 13.89V6.34503C5.5425 5.23503 5.07 4.78503 3.9075 4.78503Z" fill="#979797"/>
</svg>
