<svg width="20" height="20" viewBox="0 0 20 20" fill="none" xmlns="http://www.w3.org/2000/svg">
<path d="M6.99121 15.4083V6.94166C6.99121 6.60832 7.09121 6.28332 7.27454 6.00832L9.54954 2.62499C9.90788 2.08332 10.7995 1.69999 11.5579 1.98332C12.3745 2.25832 12.9162 3.17499 12.7412 3.99166L12.3079 6.71666C12.2745 6.96666 12.3412 7.19166 12.4829 7.36666C12.6245 7.52499 12.8329 7.62499 13.0579 7.62499H16.4829C17.1412 7.62499 17.7079 7.89166 18.0412 8.35832C18.3579 8.80832 18.4162 9.39166 18.2079 9.98332L16.1579 16.225C15.8995 17.2583 14.7745 18.1 13.6579 18.1H10.4079C9.84954 18.1 9.06621 17.9083 8.70788 17.55L7.64121 16.725C7.23288 16.4167 6.99121 15.925 6.99121 15.4083Z" fill="white"/>
<path d="M4.34199 5.31665H3.48366C2.19199 5.31665 1.66699 5.81665 1.66699 7.04998V15.4333C1.66699 16.6667 2.19199 17.1667 3.48366 17.1667H4.34199C5.63366 17.1667 6.15866 16.6667 6.15866 15.4333V7.04998C6.15866 5.81665 5.63366 5.31665 4.34199 5.31665Z" fill="white"/>
</svg>
