<svg width="20" height="20" viewBox="0 0 20 20" fill="none" xmlns="http://www.w3.org/2000/svg">
<path d="M6.99121 15.4084V6.94169C6.99121 6.60835 7.09121 6.28335 7.27454 6.00835L9.54954 2.62502C9.90788 2.08335 10.7995 1.70002 11.5579 1.98335C12.3745 2.25835 12.9162 3.17502 12.7412 3.99169L12.3079 6.71669C12.2745 6.96669 12.3412 7.19169 12.4829 7.36669C12.6245 7.52502 12.8329 7.62502 13.0579 7.62502H16.4829C17.1412 7.62502 17.7079 7.89169 18.0412 8.35835C18.3579 8.80835 18.4162 9.39169 18.2079 9.98335L16.1579 16.225C15.8995 17.2584 14.7745 18.1 13.6579 18.1H10.4079C9.84954 18.1 9.06621 17.9084 8.70788 17.55L7.64121 16.725C7.23288 16.4167 6.99121 15.925 6.99121 15.4084Z" fill="#EC5569"/>
<path d="M4.34199 5.31665H3.48366C2.19199 5.31665 1.66699 5.81665 1.66699 7.04998V15.4333C1.66699 16.6667 2.19199 17.1667 3.48366 17.1667H4.34199C5.63366 17.1667 6.15866 16.6667 6.15866 15.4333V7.04998C6.15866 5.81665 5.63366 5.31665 4.34199 5.31665Z" fill="#EC5569"/>
</svg>
