<svg width="20" height="20" viewBox="0 0 20 20" fill="none" xmlns="http://www.w3.org/2000/svg">
<rect width="20" height="20" fill="white"/>
<path d="M4.16667 8.33337C3.25 8.33337 2.5 9.08337 2.5 10C2.5 10.9167 3.25 11.6667 4.16667 11.6667C5.08333 11.6667 5.83333 10.9167 5.83333 10C5.83333 9.08337 5.08333 8.33337 4.16667 8.33337Z" fill="#C4C4C4"/>
<path d="M15.8332 8.33337C14.9165 8.33337 14.1665 9.08337 14.1665 10C14.1665 10.9167 14.9165 11.6667 15.8332 11.6667C16.7498 11.6667 17.4998 10.9167 17.4998 10C17.4998 9.08337 16.7498 8.33337 15.8332 8.33337Z" fill="#C4C4C4"/>
<path d="M10.0002 8.33337C9.0835 8.33337 8.3335 9.08337 8.3335 10C8.3335 10.9167 9.0835 11.6667 10.0002 11.6667C10.9168 11.6667 11.6668 10.9167 11.6668 10C11.6668 9.08337 10.9168 8.33337 10.0002 8.33337Z" fill="#C4C4C4"/>
</svg>
