<svg width="20" height="20" viewBox="0 0 20 20" fill="none" xmlns="http://www.w3.org/2000/svg">
<path d="M13.5413 18.75C14.3468 18.75 14.9997 18.0971 14.9997 17.2916C14.9997 16.4862 14.3468 15.8333 13.5413 15.8333C12.7359 15.8333 12.083 16.4862 12.083 17.2916C12.083 18.0971 12.7359 18.75 13.5413 18.75Z" fill="white"/>
<path d="M6.87533 18.75C7.68074 18.75 8.33366 18.0971 8.33366 17.2916C8.33366 16.4862 7.68074 15.8333 6.87533 15.8333C6.06991 15.8333 5.41699 16.4862 5.41699 17.2916C5.41699 18.0971 6.06991 18.75 6.87533 18.75Z" fill="white"/>
<path d="M4.03366 3.28335L3.86699 5.32502C3.83366 5.71669 4.14199 6.04169 4.53366 6.04169H17.292C17.642 6.04169 17.9337 5.77502 17.9587 5.42502C18.067 3.95002 16.942 2.75002 15.467 2.75002H5.22533C5.14199 2.38335 4.97533 2.03335 4.71699 1.74169C4.30033 1.30002 3.71699 1.04169 3.11699 1.04169H1.66699C1.32533 1.04169 1.04199 1.32502 1.04199 1.66669C1.04199 2.00835 1.32533 2.29169 1.66699 2.29169H3.11699C3.37533 2.29169 3.61699 2.40002 3.79199 2.58335C3.96699 2.77502 4.05033 3.02502 4.03366 3.28335Z" fill="white"/>
<path d="M17.0914 7.29169H4.30805C3.95805 7.29169 3.67472 7.55835 3.64139 7.90002L3.34139 11.525C3.22472 12.95 4.34139 14.1667 5.76639 14.1667H15.0331C16.2831 14.1667 17.3831 13.1417 17.4747 11.8917L17.7497 8.00002C17.7831 7.61669 17.4831 7.29169 17.0914 7.29169Z" fill="white"/>
</svg>
