<svg width="25" height="25" viewBox="0 0 25 25" fill="none" xmlns="http://www.w3.org/2000/svg">
<path d="M14.5 6.69995V10.5C11.71 10.55 10.55 11.71 10.5 14.5H6.7C3.7 14.5 2.5 13.3 2.5 10.3V6.69995C2.5 3.69995 3.7 2.5 6.7 2.5H10.3C13.3 2.5 14.5 3.69995 14.5 6.69995Z" stroke="#666666" stroke-linecap="round" stroke-linejoin="round"/>
<path d="M7.46019 6.36996C6.93019 6.00996 6.2302 6.00998 5.7002 6.38998" stroke="#666666" stroke-miterlimit="10" stroke-linecap="round" stroke-linejoin="round"/>
<path d="M11.4602 6.36996C10.9302 6.00996 10.2302 6.00998 9.7002 6.38998" stroke="#666666" stroke-miterlimit="10" stroke-linecap="round" stroke-linejoin="round"/>
<path d="M8.65981 11.92H6.33981C6.03981 11.92 5.7998 11.68 5.7998 11.38C5.7998 9.89 7.00981 8.68005 8.49981 8.68005C9.13981 8.68005 9.7298 8.90002 10.1898 9.27002" stroke="#666666" stroke-miterlimit="10" stroke-linecap="round" stroke-linejoin="round"/>
<path d="M22.5 14.7V18.3C22.5 21.3 21.3 22.5 18.3 22.5H14.7C11.7 22.5 10.5 21.3 10.5 18.3V14.5C10.55 11.71 11.71 10.55 14.5 10.5H18.3C21.3 10.5 22.5 11.7 22.5 14.7Z" stroke="#666666" stroke-linecap="round" stroke-linejoin="round"/>
<path d="M15.4602 14.12C14.9302 14.48 14.2302 14.48 13.7002 14.1" stroke="#666666" stroke-miterlimit="10" stroke-linecap="round" stroke-linejoin="round"/>
<path d="M19.4602 14.12C18.9302 14.48 18.2302 14.48 17.7002 14.1" stroke="#666666" stroke-miterlimit="10" stroke-linecap="round" stroke-linejoin="round"/>
<path d="M14.3398 16.6801H18.6598C18.9598 16.6801 19.1998 16.92 19.1998 17.22C19.1998 18.71 17.9898 19.92 16.4998 19.92C15.0098 19.92 13.7998 18.71 13.7998 17.22C13.7998 16.92 14.0398 16.6801 14.3398 16.6801Z" stroke="#666666" stroke-miterlimit="10" stroke-linecap="round" stroke-linejoin="round"/>
</svg>
