<svg width="14" height="15" viewBox="0 0 14 15" fill="none" xmlns="http://www.w3.org/2000/svg">
<path d="M8.00887 2.54748L9.03554 4.60081C9.17554 4.88664 9.54887 5.16081 9.86387 5.21331L11.7247 5.52248C12.9147 5.72081 13.1947 6.58414 12.3372 7.43581L10.8905 8.88248C10.6455 9.12748 10.5114 9.59998 10.5872 9.93831L11.0014 11.7291C11.328 13.1466 10.5755 13.695 9.32137 12.9541L7.5772 11.9216C7.2622 11.735 6.74304 11.735 6.4222 11.9216L4.67804 12.9541C3.4297 13.695 2.67137 13.1408 2.99804 11.7291L3.4122 9.93831C3.48804 9.59998 3.35387 9.12748 3.10887 8.88248L1.6622 7.43581C0.810536 6.58414 1.0847 5.72081 2.2747 5.52248L4.13554 5.21331C4.4447 5.16081 4.81804 4.88664 4.95804 4.60081L5.9847 2.54748C6.5447 1.43331 7.4547 1.43331 8.00887 2.54748Z" fill="#FFAE28" stroke="#FFAE28" stroke-linecap="round" stroke-linejoin="round"/>
</svg>
