<svg width="40" height="40" viewBox="0 0 40 40" fill="none" xmlns="http://www.w3.org/2000/svg">
<path d="M17.9191 28.1006V31.484C17.9191 34.3506 15.2525 36.6673 11.9691 36.6673C8.6858 36.6673 6.00244 34.3506 6.00244 31.484V28.1006C6.00244 30.9673 8.66914 33.0006 11.9691 33.0006C15.2525 33.0006 17.9191 30.9506 17.9191 28.1006Z" stroke="white" stroke-width="2.5" stroke-linecap="round" stroke-linejoin="round"/>
<path d="M17.9167 23.5162C17.9167 24.3496 17.6833 25.1162 17.2833 25.7829C16.3 27.3995 14.2833 28.4162 11.95 28.4162C9.61666 28.4162 7.59997 27.3829 6.61664 25.7829C6.21664 25.1162 5.9834 24.3496 5.9834 23.5162C5.9834 22.0829 6.65003 20.7996 7.71669 19.8662C8.80003 18.9162 10.2833 18.3496 11.9333 18.3496C13.5833 18.3496 15.0667 18.9329 16.15 19.8662C17.25 20.7829 17.9167 22.0829 17.9167 23.5162Z" stroke="white" stroke-width="2.5" stroke-linecap="round" stroke-linejoin="round"/>
<path d="M17.9191 23.5163V28.0997C17.9191 30.9663 15.2525 32.9997 11.9691 32.9997C8.6858 32.9997 6.00244 30.9497 6.00244 28.0997V23.5163C6.00244 20.6497 8.66914 18.333 11.9691 18.333C13.6191 18.333 15.1025 18.9163 16.1859 19.8496C17.2525 20.783 17.9191 22.083 17.9191 23.5163Z" stroke="white" stroke-width="2.5" stroke-linecap="round" stroke-linejoin="round"/>
<path d="M36.6667 18.2829V21.7164C36.6667 22.633 35.9334 23.383 35 23.4163H31.7333C29.9333 23.4163 28.2834 22.0996 28.1334 20.2996C28.0334 19.2496 28.4333 18.2663 29.1333 17.583C29.75 16.9496 30.6 16.583 31.5333 16.583H35C35.9334 16.6163 36.6667 17.3663 36.6667 18.2829Z" stroke="white" stroke-width="2.5" stroke-linecap="round" stroke-linejoin="round"/>
<path d="M3.3335 17.4997V14.1663C3.3335 9.63301 6.06683 6.46634 10.3168 5.933C10.7502 5.86634 11.2002 5.83301 11.6668 5.83301H26.6668C27.1002 5.83301 27.5168 5.84965 27.9168 5.91632C32.2168 6.41632 35.0002 9.59967 35.0002 14.1663V16.583H31.5335C30.6001 16.583 29.7501 16.9497 29.1335 17.583C28.4335 18.2663 28.0335 19.2497 28.1335 20.2997C28.2835 22.0997 29.9335 23.4163 31.7335 23.4163H35.0002V25.833C35.0002 30.833 31.6668 34.1663 26.6668 34.1663H22.5002" stroke="white" stroke-width="2.5" stroke-linecap="round" stroke-linejoin="round"/>
</svg>
